<svg id="credit-card" xmlns="http://www.w3.org/2000/svg" width="20.27" height="13.504" viewBox="0 0 20.27 13.504">
  <path id="Path_600" data-name="Path 600" d="M0,213.143v5.246a2.735,2.735,0,0,0,2.735,2.735h14.8a2.735,2.735,0,0,0,2.735-2.735v-5.246a.476.476,0,0,0-.476-.476H.476A.476.476,0,0,0,0,213.143Zm5.061,3.33H3.792a.832.832,0,1,1,0-1.665H5.061a.832.832,0,1,1,0,1.665Z" transform="translate(0 -207.619)" fill="#f4d03f"/>
  <path id="Path_601" data-name="Path 601" d="M20.27,88.241v-.172a2.735,2.735,0,0,0-2.735-2.735H2.735A2.735,2.735,0,0,0,0,88.069v.172a.476.476,0,0,0,.476.476H19.794A.476.476,0,0,0,20.27,88.241Z" transform="translate(0 -85.334)" fill="#f4d03f"/>
</svg>
