<svg id="global" xmlns="http://www.w3.org/2000/svg" width="18.264" height="18.264" viewBox="0 0 18.264 18.264">
  <g id="Group_107" data-name="Group 107">
    <path id="Path_602" data-name="Path 602" d="M9.132,0a9.132,9.132,0,1,0,9.132,9.132A9.143,9.143,0,0,0,9.132,0Zm0,16.742a7.582,7.582,0,0,1-5.327-2.185v-1.24a1.432,1.432,0,0,1,.349-.865,1.763,1.763,0,0,0,.412-1.038c0-.726-.655-.8-1.007-.839a1.059,1.059,0,0,1-.626-.191A2.407,2.407,0,0,1,2.617,9.9,2.934,2.934,0,0,0,1.546,8.66,7.613,7.613,0,0,1,9.132,1.522c.209,0,.414.015.619.031a.771.771,0,0,0-.127.08.38.38,0,0,0,.016.553,1.016,1.016,0,0,1,.168.183c-.009.018-.078.137-.468.335a2.755,2.755,0,0,0-1.5,1.687.927.927,0,0,0,.257.824.38.38,0,0,0,.269.111A2.969,2.969,0,0,0,9.7,4.943a2.889,2.889,0,0,1,1.332-.377c1.493,0,2.664.334,2.664.761,0,.156-.049.2-.067.222-.187.184-.823.172-1.383.163-.148,0-.3-.005-.452-.005a1.648,1.648,0,0,1-.862-.163,2.078,2.078,0,0,0-1.04-.217A3.68,3.68,0,0,0,7.341,6.2a2.125,2.125,0,0,0-.512,1.854c.01.113.02.22.02.318,0,.749.766,1.142,1.522,1.142a4.858,4.858,0,0,1,2.283.381,2.2,2.2,0,0,0,.229.95,1.327,1.327,0,0,1,.152.572.38.38,0,0,1-.1.307,1.2,1.2,0,0,0-.276.834,3.281,3.281,0,0,0,.859,1.777.381.381,0,0,0,.283.126.372.372,0,0,0,.094-.012c.224-.058,2.189-.6,2.189-1.891a.725.725,0,0,1,.317-.68,1.038,1.038,0,0,0,.444-.842,4.276,4.276,0,0,1,1.043-1.647.38.38,0,0,0-.049-.556,4.845,4.845,0,0,1-1.386-1.7,2.176,2.176,0,0,1,.5.367.634.634,0,0,0,.49.181,1.98,1.98,0,0,0,1.021-.565,7.586,7.586,0,0,1-7.33,9.628Z" fill="#f4d03f"/>
  </g>
</svg>
