<svg id="heart_2_" data-name="heart (2)" xmlns="http://www.w3.org/2000/svg" width="22.543" height="20.6" viewBox="0 0 22.543 20.6">
  <path id="Path_588" data-name="Path 588" d="M16.519,0a6.019,6.019,0,0,0-5.247,3.07A6.019,6.019,0,0,0,6.024,0,6.369,6.369,0,0,0,0,6.413C0,14.77,11.272,20.6,11.272,20.6S22.543,14.77,22.543,6.413A6.369,6.369,0,0,0,16.519,0Zm0,0" transform="translate(0 0)" fill="#707070"/>
  <path id="Path_589" data-name="Path 589" d="M1.555,6.413A6.454,6.454,0,0,1,6.846.056,6,6,0,0,0,6.025,0,6.369,6.369,0,0,0,0,6.413C0,14.769,11.272,20.6,11.272,20.6s.292-.151.777-.437C9.5,18.665,1.555,13.431,1.555,6.413Zm0,0" transform="translate(0 0)" fill="#707070"/>
</svg>
