<svg xmlns="http://www.w3.org/2000/svg" width="18.764" height="18.764" viewBox="0 0 18.764 18.764">
  <path id="information" d="M9.382,0a9.382,9.382,0,1,0,9.382,9.382A9.393,9.393,0,0,0,9.382,0Zm.61,14.949c-.446.074-1.333.26-1.783.3a1.1,1.1,0,0,1-.96-.5,1.172,1.172,0,0,1-.142-1.074L8.88,8.8H7.036a2.2,2.2,0,0,1,1.735-2.05,6.789,6.789,0,0,1,1.783-.3,1.414,1.414,0,0,1,.96.5,1.172,1.172,0,0,1,.142,1.074L9.884,12.9h1.843a2.076,2.076,0,0,1-1.735,2.048Zm.562-9.085a1.173,1.173,0,1,1,1.173-1.173,1.173,1.173,0,0,1-1.173,1.173Z" fill="#f4d03f"/>
</svg>
