<svg id="search_1_" data-name="search (1)" xmlns="http://www.w3.org/2000/svg" width="21.009" height="21.088" viewBox="0 0 21.009 21.088">
  <g id="Group_101" data-name="Group 101" transform="translate(0)">
    <path id="Path_586" data-name="Path 586" d="M21.26,16.618l-3.471-3.471A9.575,9.575,0,0,0,18.84,8.94,8.94,8.94,0,1,0,9.9,17.88a9.575,9.575,0,0,0,4.207-1.052L17.578,20.3a2.542,2.542,0,0,0,3.681,0A2.741,2.741,0,0,0,21.26,16.618ZM9.9,15.777A6.837,6.837,0,1,1,16.737,8.94,6.823,6.823,0,0,1,9.9,15.777Z" transform="translate(-0.96)" fill="#707070"/>
  </g>
</svg>
